<svg xmlns="http://www.w3.org/2000/svg" width="58" height="53" fill="none"><path stroke="#E6AC2F" stroke-width="2" d="M55 23.613 34 36l13.067-9.806V22.58l4.2-2.581L55 23.613Z"/><path fill="#E6AC2F" d="M31.305 16.928c-.137-.04-.28-.078-.43-.117a6.921 6.921 0 0 0-.459-.108 5.587 5.587 0 0 0-.537-.078 4.903 4.903 0 0 0-.645-.04c-.644 0-1.149.138-1.513.411-.365.274-.547.694-.547 1.26 0 .254.042.475.127.664.084.182.198.338.342.469.15.123.322.218.517.283a2.3 2.3 0 0 0 .645.088c.247 0 .488-.033.722-.098.241-.065.466-.15.674-.254.215-.11.414-.237.596-.38a4.94 4.94 0 0 0 .508-.44v-1.66Zm.078 2.851a4.686 4.686 0 0 1-.479.469c-.182.15-.39.287-.625.41a3.805 3.805 0 0 1-1.718.39c-.43 0-.827-.064-1.192-.194a2.714 2.714 0 0 1-.928-.557 2.71 2.71 0 0 1-.615-.879 3.005 3.005 0 0 1-.215-1.162c0-.462.082-.876.244-1.24.17-.365.404-.674.704-.928.3-.254.657-.45 1.074-.586a4.52 4.52 0 0 1 1.396-.205c.495 0 .915.042 1.26.127.352.085.677.182.977.293h.039v-.547c0-.345-.04-.658-.117-.938a1.692 1.692 0 0 0-.391-.712 1.707 1.707 0 0 0-.723-.46c-.293-.11-.66-.165-1.103-.165-.469 0-.912.045-1.328.136-.41.085-.82.205-1.23.362v-1.27c.162-.078.347-.15.556-.215.208-.071.43-.13.664-.176.234-.052.482-.09.742-.117.26-.026.52-.039.781-.039.625 0 1.166.082 1.621.244.463.163.843.39 1.143.684.306.293.53.648.674 1.064.15.417.224.88.224 1.387v3.818c0 .339.052.59.157.752.104.157.302.235.595.235.358 0 .687-.114.987-.342.3-.228.556-.537.771-.928.215-.39.381-.846.498-1.367.124-.52.186-1.074.186-1.66 0-1.055-.176-1.982-.528-2.783a5.676 5.676 0 0 0-1.445-2.022 6.072 6.072 0 0 0-2.139-1.23 7.992 7.992 0 0 0-2.617-.42c-.827 0-1.575.094-2.246.283a6.5 6.5 0 0 0-1.777.791c-.521.332-.97.732-1.348 1.201a6.81 6.81 0 0 0-.918 1.543 8.204 8.204 0 0 0-.537 1.768 10.416 10.416 0 0 0-.176 1.924c0 1.054.15 2.024.45 2.91a6.238 6.238 0 0 0 1.367 2.275c.605.645 1.36 1.146 2.265 1.504.905.358 1.96.537 3.164.537.567 0 1.107-.03 1.621-.088.515-.052.997-.123 1.446-.215.449-.09.86-.195 1.23-.312.378-.11.71-.228.996-.352v1.319c-.293.117-.638.23-1.035.341-.39.118-.82.219-1.289.303-.469.091-.967.163-1.494.215-.52.052-1.055.078-1.602.078-.787 0-1.55-.081-2.285-.244a8.768 8.768 0 0 1-2.06-.713 7.752 7.752 0 0 1-1.748-1.172 7.072 7.072 0 0 1-1.358-1.64 8.106 8.106 0 0 1-.879-2.1 9.913 9.913 0 0 1-.312-2.559c0-1.347.202-2.571.605-3.671.404-1.1.977-2.038 1.719-2.813a7.613 7.613 0 0 1 2.686-1.797c1.054-.423 2.23-.635 3.525-.635 1.191 0 2.285.186 3.281.557 1.003.365 1.866.886 2.588 1.563a7.03 7.03 0 0 1 1.69 2.421c.403.938.605 1.98.605 3.125 0 .88-.107 1.67-.322 2.373-.209.704-.498 1.303-.87 1.797-.37.489-.81.866-1.318 1.133-.508.26-1.058.39-1.65.39-.28 0-.527-.032-.742-.097a1.797 1.797 0 0 1-.537-.264 1.447 1.447 0 0 1-.372-.4 1.976 1.976 0 0 1-.224-.508h-.04Z"/><path stroke="#E6AC2F" stroke-width="2" d="M28.762 33 4 50h50L28.762 33Z"/><path stroke="#E6AC2F" stroke-width="2" d="M1.5 52V23l7-4.5V1h41v16.5l7 5.5v29h-55Z"/><path stroke="#E6AC2F" stroke-width="2" d="M4 23.586 25 36l-13.696-9.828v-2.586L7.652 21 4 23.586Z"/></svg>